<svg xmlns="http://www.w3.org/2000/svg" xml:space="preserve" width="1500" height="1500" viewBox="0 0 1500 1500" data-version="1" data-id="lg_E3sSuyOj5pedcwkfer" x="0" y="0"><rect width="1500" height="1500" id="background" stroke="transparent" fill="#ffffff"></rect><g id="outer-wrapper" data-padding="20" transform="matrix(1.7825311942959001,0,0,1.7825311942959001,-586.898395721925,-586.898395721925)"><g id="inner-wrapper" transform="matrix(0.964349376114082,0,0,0.964349376114082,10,4.420677361854061)"><rect width="411.062" height="245.911" x="161.5792467652496" y="249.34924078504451" fill="none" rx="0" ry="0" transform="translate(474.97 399.65)"></rect><path fill="#010c80" d="M648.3202467652495 750.3842407850445Q645.9202467652497 732.3342407850446 645.3502467652495 713.0742407850446Q644.7702467652496 693.8242407850446 645.3502467652495 675.8842407850445Q644.3202467652495 676.4542407850446 643.5202467652496 676.9142407850445T641.5802467652495 677.3742407850445Q640.7802467652496 677.3742407850445 640.0902467652495 676.6842407850445Q639.4002467652496 676.0042407850445 639.4002467652496 674.9742407850446V674.6342407850445Q639.4002467652496 674.5142407850446 639.5202467652496 674.2842407850446Q640.4302467652496 673.2642407850446 641.7502467652496 670.7442407850446Q643.0602467652495 668.2342407850446 644.5502467652495 665.7742407850445Q646.0302467652496 663.3242407850446 647.4002467652497 661.4342407850445T649.8002467652495 659.5442407850446T651.3402467652496 660.0642407850446Q651.8602467652496 660.5742407850446 652.2002467652496 661.2642407850445Q652.5402467652495 661.9442407850445 652.9402467652496 662.8042407850446T654.1402467652497 664.1242407850445Q657.5702467652496 662.0642407850446 661.6802467652496 660.5742407850446Q665.8002467652497 659.0942407850446 669.9702467652496 658.5242407850445T678.0802467652497 658.3542407850446Q682.0202467652497 658.7442407850444 685.2202467652496 660.2942407850445Q688.4202467652497 661.8342407850446 690.7102467652496 664.6942407850445Q692.9902467652496 667.5442407850445 693.6802467652496 671.8842407850445Q693.5602467652498 677.4842407850444 690.4202467652497 682.4542407850445T682.6502467652497 691.4842407850444T672.6502467652497 698.6842407850445T662.7702467652498 704.1142407850444Q658.2602467652498 706.3942407850444 655.3402467652497 707.7642407850444Q652.4302467652496 709.1342407850444 652.6602467652497 709.3642407850444V750.3842407850444Q652.6602467652497 751.2942407850444 651.8602467652497 751.6442407850444Q651.0602467652498 751.9842407850444 650.3702467652497 751.9842407850444Q649.1202467652497 751.9842407850444 648.3202467652497 750.3842407850443M652.6602467652497 671.4342407850444Q652.3202467652497 674.7442407850444 651.8002467652497 678.6842407850444Q651.2902467652497 682.6242407850443 651.0602467652496 686.8042407850444Q650.8302467652496 690.9742407850445 651.1202467652497 694.9642407850445Q651.4002467652497 698.9642407850445 652.6602467652497 702.1642407850444Q657.5702467652497 699.9942407850444 662.9402467652496 697.3142407850444Q668.3102467652496 694.6242407850443 673.2202467652496 691.1942407850444Q678.1402467652497 687.7742407850444 682.0802467652496 683.6042407850443T687.9602467652496 674.2842407850444Q687.9602467652496 671.5442407850444 685.9602467652496 669.6042407850443T681.1102467652496 666.4042407850444Q678.2502467652496 665.1442407850444 675.2202467652496 664.6342407850444Q672.2002467652496 664.1242407850444 670.2502467652496 664.1242407850444Q669.1102467652496 664.1242407850444 666.5402467652495 664.7442407850444Q663.9702467652496 665.3742407850444 661.1702467652497 666.3442407850445T655.9102467652497 668.6942407850445Q653.4602467652496 670.0642407850445 652.6602467652497 671.4342407850445M702.3602467652496 727.1842407850445Q701.7902467652495 727.2942407850445 700.6502467652497 727.5242407850444Q699.5002467652496 727.7542407850444 698.2502467652496 727.6342407850445Q696.9902467652496 727.5242407850444 696.0202467652496 726.9542407850445T695.0502467652495 725.0042407850444Q695.0502467652495 724.2042407850445 695.3902467652496 723.8642407850446T696.5302467652496 722.8342407850446Q699.0502467652495 720.7842407850445 700.8202467652495 717.5242407850445T704.0702467652495 710.5542407850445Q705.5602467652495 706.8442407850446 707.2202467652496 703.1242407850445Q708.8702467652495 699.4142407850445 711.0402467652495 696.4442407850445T716.4102467652496 691.6442407850445T724.3002467652495 689.9342407850445Q726.2402467652496 689.9342407850445 728.6402467652495 690.8442407850446Q731.0402467652495 691.7642407850445 733.1002467652495 693.3042407850445Q735.1502467652494 694.8442407850446 736.5202467652496 697.0142407850444T737.8902467652495 701.8142407850445Q738.4702467652495 702.7242407850445 736.8102467652495 704.4442407850445Q735.1502467652494 706.1542407850445 732.3002467652495 708.1542407850445Q729.4402467652495 710.1542407850445 725.8402467652495 712.2642407850444Q722.2402467652496 714.3842407850445 718.9302467652495 716.2142407850445Q715.6102467652495 718.0342407850444 713.1002467652495 719.4142407850445Q710.5902467652495 720.7842407850444 709.7902467652495 721.4642407850445Q709.2202467652496 722.6142407850444 708.8702467652495 724.0942407850445Q708.5302467652496 725.5842407850445 708.3602467652495 726.8942407850445T708.1302467652495 729.2942407850444Q708.0702467652495 730.3742407850444 708.0702467652495 730.9542407850445Q708.0702467652495 733.1242407850445 707.9002467652494 735.7442407850444Q707.7302467652495 738.3742407850445 708.1302467652495 740.7142407850445Q708.5302467652496 743.0642407850446 710.0202467652496 744.6042407850446Q711.5002467652496 746.1442407850445 715.0402467652495 746.1442407850445Q718.8102467652495 746.1442407850445 722.1302467652495 744.2642407850445Q725.4402467652494 742.3742407850445 728.3002467652495 739.6342407850445Q731.1502467652494 736.8942407850445 733.5002467652495 733.6942407850445Q735.8402467652495 730.4942407850446 737.7202467652495 727.6942407850445Q739.6102467652495 724.8942407850445 741.0902467652495 723.0642407850446Q742.5802467652495 721.2342407850446 743.6102467652495 721.2342407850446Q744.7502467652495 721.2342407850446 746.0602467652495 721.6342407850445Q747.3802467652495 722.0342407850445 747.3802467652495 723.5242407850445Q747.3802467652495 725.5842407850446 745.7202467652494 728.4342407850445Q744.0602467652494 731.2942407850446 741.3802467652495 734.4942407850446Q738.6902467652494 737.6942407850445 735.2102467652494 740.8342407850446Q731.7202467652494 743.9742407850445 728.1802467652494 746.4342407850445Q724.6402467652495 748.8842407850445 721.2102467652494 750.4342407850445Q717.7902467652494 751.9742407850446 715.1602467652494 751.9742407850446Q710.0202467652495 751.9742407850446 707.3902467652495 749.4642407850446Q704.7602467652495 746.9442407850446 703.6702467652494 743.1742407850445Q702.5902467652495 739.4042407850445 702.5302467652494 735.1242407850445Q702.4702467652494 730.8342407850446 702.3602467652495 727.1842407850445M723.3802467652495 696.3342407850446Q721.4402467652494 696.3342407850446 719.2702467652493 698.2142407850445Q717.1002467652494 700.1042407850446 715.2102467652494 702.7842407850445Q713.3302467652494 705.4742407850445 712.1302467652495 708.2742407850445T710.9302467652494 712.8942407850445Q712.6402467652495 712.8942407850445 715.9002467652494 711.5842407850446T722.3602467652495 708.3242407850446Q725.5502467652494 706.3842407850445 727.9502467652494 704.2142407850445T730.3502467652494 700.1042407850446Q730.3502467652494 699.0742407850446 729.5502467652493 698.3842407850445Q728.7502467652494 697.7042407850445 727.6702467652494 697.2442407850444Q726.5802467652494 696.7842407850445 725.4402467652494 696.5542407850445Q724.3002467652493 696.3342407850445 723.3802467652494 696.3342407850445M757.8902467652493 750.3842407850445Q756.6302467652494 734.9542407850445 755.6602467652493 719.4742407850445T753.5502467652493 687.3142407850445Q753.5502467652493 684.5742407850445 756.5202467652493 684.5742407850445H757.4302467652494Q757.7802467652493 684.5742407850445 758.2302467652494 685.4842407850444Q758.6902467652494 686.4042407850445 759.2002467652494 688.8542407850446Q759.7202467652494 691.3142407850445 760.3502467652494 696.2842407850445Q760.9702467652494 701.2542407850445 761.8902467652495 709.2542407850445Q762.8002467652494 717.2442407850446 763.9502467652494 729.2442407850446Q766.3402467652494 721.4742407850446 767.7202467652494 714.1642407850445Q769.0902467652494 706.8542407850446 771.2602467652493 700.8542407850446T777.3702467652495 690.2842407850446T788.7402467652494 683.5442407850446Q792.8502467652495 684.2242407850446 795.3702467652495 688.5142407850446Q797.8802467652495 692.7942407850446 799.3702467652495 699.0842407850446Q800.8502467652495 705.3642407850446 801.4202467652494 712.7342407850446T802.1102467652495 726.8442407850446Q802.2202467652494 733.5842407850446 802.2202467652494 738.9042407850445Q802.2202467652494 744.2142407850446 802.4502467652494 746.4942407850446Q802.1102467652495 747.4142407850445 801.4202467652494 748.0942407850446Q800.7402467652495 748.7842407850446 799.8802467652495 749.0742407850446Q799.0202467652495 749.3542407850446 798.2202467652494 749.1842407850446T796.7402467652494 747.9842407850447Q796.7402467652494 746.7242407850447 796.5102467652493 742.8442407850446Q796.2802467652493 738.9542407850447 795.9402467652494 733.7642407850446Q795.5902467652494 728.5642407850446 795.1902467652494 722.6742407850447Q794.8002467652494 716.7942407850446 794.5102467652493 711.5942407850447T794.0002467652494 702.5142407850446Q793.7702467652493 698.6242407850448 793.6502467652494 697.3642407850448Q791.2502467652494 693.1442407850448 788.9102467652494 692.5742407850447Q786.5702467652494 691.9942407850447 784.2302467652494 694.0542407850447Q781.8802467652494 696.1142407850448 779.7102467652494 700.3342407850447Q777.5402467652493 704.5642407850447 775.6002467652494 709.8842407850448Q773.6602467652494 715.1942407850447 771.9402467652494 721.0242407850446Q770.2302467652494 726.8442407850447 768.9702467652494 732.2742407850446Q767.7202467652494 737.7042407850447 766.8602467652493 742.1042407850447Q766.0002467652494 746.4942407850447 765.7702467652493 748.8942407850448Q765.4302467652494 749.6942407850447 764.3502467652493 750.4442407850447Q763.2602467652493 751.1842407850447 762.0602467652493 751.5242407850446Q760.8602467652493 751.8742407850448 759.6602467652493 751.6942407850447Q758.4602467652494 751.5242407850446 757.8902467652493 750.3842407850448M817.5302467652493 796.5442407850447Q827.5902467652493 795.9742407850447 833.3602467652493 791.2842407850447Q839.1302467652492 786.6042407850448 841.9802467652494 779.1742407850447Q844.8402467652493 771.7542407850447 845.4102467652493 762.2142407850447Q845.9802467652494 752.6642407850447 845.5302467652493 742.5042407850448Q845.0702467652493 732.3342407850448 844.2102467652494 722.1042407850448T843.4702467652494 703.0842407850448Q838.5602467652493 717.4742407850448 834.2102467652494 726.3342407850448Q829.8702467652494 735.1842407850448 826.1602467652493 739.7042407850448Q822.4502467652494 744.2142407850448 819.4202467652493 745.1842407850448T814.1002467652493 744.8442407850448Q811.8202467652493 743.5242407850449 810.3902467652493 740.6142407850448T808.3902467652493 734.6142407850448Q808.6202467652494 729.3642407850448 810.5102467652493 723.0142407850449Q812.3902467652493 716.6742407850448 815.4202467652494 710.5642407850448T822.4502467652494 699.1442407850448Q826.4402467652494 693.8242407850448 830.9002467652493 690.7942407850448Q835.3602467652493 687.7742407850449 840.1602467652493 687.6042407850448Q844.9502467652494 687.4242407850447 849.4102467652493 691.3142407850448Q849.5202467652493 691.4242407850447 849.8102467652493 694.3442407850448Q850.1002467652493 697.2542407850448 850.5002467652494 701.9942407850447T851.4102467652493 712.6242407850448Q851.9202467652493 718.5042407850447 852.3802467652494 724.5042407850447T853.1802467652494 735.9842407850447Q853.5202467652493 741.4742407850447 853.8702467652494 745.4742407850447Q854.3202467652493 751.9842407850447 853.3502467652494 759.2942407850447T850.3202467652494 773.5242407850448Q848.2702467652493 780.4342407850447 845.1302467652495 786.4942407850448Q841.9802467652494 792.5442407850448 837.9302467652494 796.4342407850447Q833.8702467652495 800.3142407850448 828.9002467652494 801.4042407850447Q823.9302467652494 802.4842407850448 818.3302467652495 799.6242407850448Q817.9902467652495 799.6242407850448 817.3002467652495 799.5742407850448Q816.6202467652495 799.5142407850449 816.2202467652495 799.1742407850448T816.0502467652495 798.2542407850449Q816.2802467652496 797.6842407850448 817.5302467652496 796.5442407850448M814.3302467652495 733.8142407850448Q815.4802467652495 737.3542407850448 817.3602467652495 737.4142407850449Q819.2502467652495 737.4742407850449 821.4202467652494 735.0142407850449Q823.5902467652495 732.5642407850448 826.1602467652494 728.1042407850448T831.2402467652495 718.3942407850449Q833.7602467652495 713.1342407850449 836.2102467652495 707.5942407850448Q838.6702467652494 702.0542407850448 840.8402467652495 697.2542407850449Q840.8402467652495 695.9942407850449 840.2702467652496 694.914240785045Q839.7002467652495 693.8242407850449 837.7602467652496 694.2842407850449Q834.5602467652495 694.9642407850449 831.5302467652496 697.3642407850449T825.9302467652494 703.2542407850449Q823.3602467652495 706.7342407850449 821.2502467652495 710.9042407850449Q819.1302467652495 715.0742407850448 817.5902467652495 719.2442407850449T815.1902467652494 727.1942407850448Q814.3302467652495 730.9642407850448 814.3302467652495 733.8142407850448M889.8602467652495 738.6142407850448Q889.4002467652494 739.9842407850449 887.6302467652495 742.3242407850448Q885.8602467652495 744.6742407850448 883.4602467652495 747.0142407850449T878.4902467652495 751.1242407850448T873.9802467652495 752.8942407850448Q870.3202467652495 752.8942407850448 867.9802467652495 749.4742407850448Q865.6302467652495 746.0442407850448 864.3802467652495 740.6742407850447Q863.1202467652495 735.3042407850448 862.6602467652494 728.7342407850448Q862.2102467652494 722.1642407850447 862.0902467652495 715.8742407850448Q861.9802467652494 709.5942407850448 861.9802467652494 704.4542407850447T861.6402467652495 696.6842407850447Q862.0902467652495 695.5442407850448 862.8402467652495 695.3142407850448Q863.5802467652495 695.0842407850448 864.6102467652495 695.0842407850448Q865.5202467652495 695.0842407850448 866.2602467652493 695.3142407850448Q867.0102467652493 695.5442407850448 867.5802467652494 696.6842407850447Q867.5802467652494 697.9442407850447 867.6302467652495 700.9142407850447Q867.6902467652494 703.8842407850448 867.9202467652494 707.5942407850448T868.3802467652495 715.3642407850448T868.7802467652493 723.0742407850448Q868.9502467652494 726.7342407850448 869.1202467652494 729.6442407850448Q869.2902467652493 732.5642407850448 869.4102467652494 733.9342407850447Q869.5202467652493 734.7342407850448 869.6902467652494 736.5542407850448Q869.8602467652494 738.3842407850448 870.2602467652493 740.3842407850448T871.2902467652493 743.9842407850448T872.9502467652494 745.7042407850448Q874.6602467652493 745.7042407850448 876.4302467652494 744.2142407850448T879.9202467652493 740.4442407850448Q881.6302467652494 738.1542407850447 883.1202467652494 735.4142407850449Q884.6002467652494 732.6742407850448 885.8002467652493 730.1042407850448T887.6302467652494 725.4742407850449T888.3702467652494 722.5042407850449Q888.6002467652494 720.5642407850448 888.8302467652494 716.9642407850448T889.1702467652494 709.2542407850449Q889.2902467652494 705.1342407850448 889.3402467652494 701.4842407850449Q889.4002467652493 697.8242407850448 889.4002467652493 695.8842407850448L895.6802467652493 696.2242407850448Q895.8002467652493 705.4842407850448 895.5702467652493 712.9642407850448T895.4602467652493 727.0142407850449Q895.5702467652493 733.5842407850448 896.4802467652493 739.7542407850449Q897.4002467652492 745.9242407850448 899.8002467652493 752.5542407850448Q899.4602467652493 752.8942407850448 898.4302467652493 753.5242407850449T896.9402467652493 754.1542407850449Q894.0902467652493 754.1542407850449 893.1102467652493 752.2642407850449Q892.1402467652492 750.3842407850449 891.8602467652493 747.8142407850448Q891.5702467652493 745.2442407850449 891.4002467652492 742.674240785045T889.8602467652493 738.6142407850449M908.0202467652492 749.5742407850448Q908.0202467652492 742.1442407850449 907.7402467652493 733.924240785045Q907.4502467652493 725.6942407850449 907.1702467652492 717.2942407850448Q906.8802467652492 708.894240785045 907.0002467652492 700.7842407850449Q907.1102467652493 692.674240785045 908.0202467652492 685.5942407850449Q908.2502467652492 685.4742407850449 909.1102467652493 685.414240785045Q909.9702467652493 685.3642407850449 910.3102467652493 685.3642407850449Q911.9102467652493 685.3642407850449 912.8802467652494 685.8742407850449Q913.8502467652494 686.3942407850449 913.8502467652494 688.1042407850449Q913.8502467652494 694.8442407850449 913.7902467652494 702.7842407850449Q913.7402467652495 710.7242407850449 913.6802467652494 718.894240785045T913.6202467652495 735.064240785045T913.8502467652495 749.5742407850449Q913.9702467652495 751.5142407850449 913.1102467652495 752.144240785045T911.0002467652495 752.7742407850449Q909.6202467652495 752.7742407850449 908.7102467652495 752.144240785045T908.0202467652495 749.5742407850449M905.5102467652495 667.7642407850449Q905.5102467652495 666.394240785045 906.4202467652494 665.934240785045Q907.3402467652494 665.4842407850449 908.4802467652494 665.4842407850449Q910.7702467652493 665.4842407850449 911.3402467652494 666.9642407850449Q911.9102467652494 668.4542407850449 911.9102467652494 670.394240785045Q911.2202467652494 671.654240785045 910.2002467652494 672.164240785045Q909.1702467652494 672.674240785045 908.0802467652494 672.394240785045Q907.0002467652494 672.104240785045 906.2502467652494 670.9642407850449Q905.5102467652493 669.824240785045 905.5102467652493 667.764240785045M926.5302467652493 750.384240785045Q925.2802467652493 734.9542407850449 924.3102467652493 719.4742407850449T922.1902467652493 687.314240785045Q922.1902467652493 684.5742407850449 925.1602467652493 684.5742407850449H926.0802467652493Q926.4202467652493 684.5742407850449 926.8802467652492 685.4842407850449Q927.3302467652493 686.404240785045 927.8502467652493 688.854240785045Q928.3602467652493 691.314240785045 928.9902467652493 696.284240785045T930.5302467652492 709.254240785045Q931.4502467652492 717.244240785045 932.5902467652492 729.244240785045Q934.9902467652491 721.474240785045 936.3602467652491 714.164240785045T939.9002467652491 700.854240785045T946.0202467652491 690.2842407850451Q949.9602467652492 685.714240785045 957.3802467652491 683.5442407850451Q961.5002467652491 684.224240785045 964.0102467652491 688.5142407850451Q966.5202467652491 692.7942407850451 968.0102467652491 699.084240785045Q969.5002467652491 705.364240785045 970.0702467652491 712.734240785045T970.750246765249 726.844240785045Q970.870246765249 733.584240785045 970.870246765249 738.904240785045Q970.870246765249 744.214240785045 971.090246765249 746.494240785045Q970.750246765249 747.414240785045 970.0702467652491 748.094240785045Q969.380246765249 748.7842407850451 968.5202467652491 749.074240785045Q967.6702467652491 749.354240785045 966.8702467652491 749.1842407850451T965.3802467652491 747.9842407850451Q965.3802467652491 746.7242407850451 965.1502467652491 742.844240785045Q964.9202467652491 738.9542407850452 964.5802467652491 733.7642407850451Q964.240246765249 728.5642407850451 963.840246765249 722.6742407850452Q963.4402467652491 716.7942407850451 963.150246765249 711.5942407850451Q962.870246765249 706.3942407850452 962.640246765249 702.5142407850451Q962.410246765249 698.6242407850452 962.300246765249 697.3642407850452Q959.900246765249 693.1442407850452 957.560246765249 692.5742407850452Q955.2102467652489 691.9942407850451 952.8702467652489 694.0542407850452T948.3602467652489 700.3342407850452Q946.190246765249 704.5642407850452 944.2402467652489 709.8842407850452Q942.3002467652489 715.1942407850452 940.5902467652489 721.0242407850451Q938.8702467652489 726.8442407850451 937.6202467652489 732.2742407850451Q936.3602467652489 737.7042407850452 935.5002467652489 742.1042407850451Q934.6502467652489 746.4942407850451 934.4202467652489 748.8942407850452Q934.0802467652488 749.6942407850452 932.9902467652489 750.4442407850452Q931.9002467652489 751.1842407850452 930.700246765249 751.5242407850451Q929.5102467652489 751.8742407850452 928.310246765249 751.6942407850452Q927.1102467652489 751.5242407850451 926.530246765249 750.3842407850452M642.4902467652489 780.2142407850451Q642.4902467652489 779.2942407850451 643.120246765249 778.8942407850452T644.600246765249 778.4342407850452Q645.4602467652489 778.3842407850452 646.430246765249 778.4942407850451Q647.400246765249 778.6142407850452 648.090246765249 778.6142407850452Q648.660246765249 779.9842407850451 649.0602467652491 784.0342407850452Q649.4602467652489 788.0942407850453 649.860246765249 793.8642407850452T650.430246765249 806.6042407850452T650.770246765249 820.7142407850451T651.000246765249 834.7142407850451Q651.0602467652491 841.5642407850453 651.120246765249 847.2242407850451Q651.170246765249 852.8742407850452 651.170246765249 856.8742407850452V862.0142407850451Q651.0602467652491 864.3042407850452 650.200246765249 864.7042407850452T646.260246765249 864.1842407850452Q645.920246765249 864.0742407850452 645.690246765249 860.7642407850451Q645.4602467652489 857.4442407850452 645.350246765249 852.0242407850451Q645.230246765249 846.5942407850451 645.120246765249 839.5642407850452Q645.000246765249 832.5442407850452 644.890246765249 825.1142407850452Q644.770246765249 817.6842407850452 644.600246765249 810.2542407850451Q644.430246765249 802.8342407850452 644.200246765249 796.7242407850451Q643.9702467652489 790.6042407850452 643.5702467652491 786.2042407850452T642.490246765249 780.2142407850451M662.270246765249 864.0842407850453Q661.010246765249 848.6642407850452 660.040246765249 833.1742407850452Q659.070246765249 817.6942407850452 657.920246765249 801.0142407850452Q657.920246765249 798.2742407850452 660.890246765249 798.2742407850452H661.8102467652491Q662.150246765249 798.2742407850452 662.610246765249 799.1842407850452Q663.0702467652491 800.1042407850452 663.5802467652491 802.5542407850453Q664.090246765249 805.0142407850452 664.720246765249 809.9842407850452T666.2702467652491 822.9542407850453Q667.1802467652491 830.9542407850453 668.3202467652491 842.9442407850453Q670.720246765249 835.1742407850453 672.090246765249 827.8642407850452T675.630246765249 814.5542407850453Q677.8102467652491 808.5542407850453 681.7502467652491 803.9842407850454T693.120246765249 797.2442407850453Q697.2302467652491 797.9342407850453 699.7402467652491 802.2142407850454Q702.2602467652491 806.4942407850453 703.7402467652491 812.7842407850453Q705.2302467652491 819.0642407850453 705.8002467652491 826.4342407850453T706.4802467652491 840.5442407850453Q706.600246765249 847.2842407850453 706.600246765249 852.6042407850452Q706.600246765249 857.9142407850453 706.8302467652491 860.2042407850454Q706.4802467652491 861.1142407850454 705.8002467652491 861.8042407850453Q705.1102467652491 862.4842407850454 704.2602467652491 862.7742407850453Q703.4002467652491 863.0542407850453 702.600246765249 862.8842407850454T701.110246765249 861.6842407850454Q701.110246765249 860.4242407850454 700.890246765249 856.5442407850454Q700.660246765249 852.6542407850454 700.3102467652491 847.4642407850454Q699.9702467652492 842.2642407850454 699.5702467652491 836.3742407850455Q699.1702467652491 830.4942407850455 698.890246765249 825.2942407850455Q698.600246765249 820.0942407850455 698.370246765249 816.2142407850455Q698.140246765249 812.3242407850455 698.0302467652491 811.0642407850455Q695.6302467652491 806.8442407850455 693.2902467652491 806.2742407850455Q690.9402467652491 805.6942407850455 688.600246765249 807.7542407850456T684.090246765249 814.0442407850455Q681.9202467652491 818.2642407850456 679.9802467652491 823.5842407850455Q678.0302467652491 828.8942407850456 676.3202467652491 834.7242407850456Q674.610246765249 840.5442407850455 673.350246765249 845.9742407850456T671.240246765249 855.8042407850455Q670.380246765249 860.2042407850455 670.150246765249 862.5942407850455Q669.8102467652491 863.3942407850456 668.720246765249 864.1442407850456Q667.640246765249 864.8842407850456 666.4402467652491 865.2242407850456Q665.2402467652491 865.5742407850455 664.0402467652491 865.3942407850456Q662.840246765249 865.2242407850456 662.2702467652491 864.0842407850455M723.0402467652491 863.8442407850455Q723.0402467652491 863.9642407850456 725.5002467652491 862.4742407850456Q727.9502467652491 860.9942407850456 731.3202467652491 858.5342407850455Q734.7002467652491 856.0742407850455 738.2402467652491 853.1642407850455T744.0602467652491 847.6242407850455Q746.350246765249 844.9942407850456 746.5202467652491 843.1042407850455Q746.6902467652491 841.2242407850456 743.380246765249 840.6542407850455Q739.2702467652491 840.0842407850455 736.470246765249 840.7642407850456Q733.670246765249 841.4542407850456 731.380246765249 842.3642407850456Q729.100246765249 843.2842407850455 727.100246765249 844.0842407850456T722.7002467652492 844.6542407850457Q717.6702467652492 844.6542407850457 715.7902467652491 841.5042407850456Q713.9002467652491 838.3642407850457 713.9002467652491 832.9942407850456T716.3002467652491 822.7742407850455Q718.7002467652491 817.9142407850456 722.4702467652492 814.3742407850457T731.1502467652491 808.7142407850456Q736.0702467652491 806.6042407850456 741.2102467652492 806.6042407850456Q743.2602467652491 806.6042407850456 744.7502467652491 806.9442407850456T746.2402467652491 809.5742407850455Q746.2402467652491 811.1742407850456 744.8602467652491 812.6042407850455Q743.4902467652491 814.0342407850455 741.7802467652491 814.0342407850455Q741.6702467652492 814.0342407850455 741.2102467652492 813.8542407850455Q740.7502467652491 813.6842407850455 740.2902467652491 813.3442407850455Q739.8402467652492 813.0042407850456 739.3802467652491 812.8342407850455Q738.9202467652492 812.6542407850455 738.8102467652491 812.6542407850455Q735.1502467652491 811.6342407850456 731.7202467652492 813.6842407850455Q728.3002467652491 815.7442407850456 725.6102467652491 819.2242407850456Q722.9302467652492 822.7142407850456 721.3302467652492 826.7742407850455Q719.7302467652491 830.8242407850455 719.7302467652491 834.0242407850455Q719.7302467652491 835.2842407850455 720.2402467652491 836.0242407850455Q720.7602467652491 836.7642407850456 721.6102467652491 837.1142407850455Q722.4702467652492 837.4542407850455 723.5602467652491 837.5142407850456Q724.6402467652491 837.5642407850455 725.7802467652491 837.5642407850455Q728.0702467652492 837.5642407850455 730.4102467652492 836.8842407850454Q732.7502467652491 836.1942407850455 734.9802467652491 835.2842407850455Q737.2102467652492 834.3642407850455 739.5502467652491 833.6842407850454Q741.8902467652491 832.9942407850455 744.4102467652492 832.9942407850455Q745.5502467652491 832.9942407850455 746.9202467652492 833.6242407850455T749.4302467652492 835.4542407850454Q750.5802467652491 836.6542407850454 751.3802467652491 838.1942407850454T752.2902467652491 841.5642407850455Q752.9802467652491 843.1642407850454 751.8902467652492 845.7942407850455Q750.8102467652492 848.4242407850454 748.6302467652492 851.3942407850454Q746.4602467652492 854.3642407850455 743.3802467652492 857.3942407850454Q740.2902467652492 860.4142407850454 737.2102467652492 862.8742407850455Q734.1202467652492 865.3342407850455 731.1502467652492 866.8742407850455T726.1302467652492 868.3042407850455Q723.8402467652492 868.3042407850455 723.4402467652492 866.9342407850455T723.0402467652492 863.8442407850455M757.2102467652492 895.6142407850456Q758.4702467652492 883.6142407850456 758.6402467652492 872.8142407850455T758.5302467652492 851.5042407850456Q758.2402467652491 840.9942407850456 757.6702467652492 830.2542407850456T756.9902467652491 807.5142407850456Q757.3302467652492 805.9142407850455 757.8402467652493 805.0642407850455Q758.3602467652493 804.2042407850456 760.6402467652492 804.6642407850456Q763.0402467652492 805.2342407850456 763.5002467652492 807.3442407850456Q763.9602467652492 809.4642407850456 763.7302467652493 812.0842407850456Q763.5002467652492 814.7142407850456 763.0402467652493 817.3442407850456T763.0402467652493 821.5742407850456Q766.7002467652493 818.9442407850456 770.8102467652493 816.0842407850456Q774.9202467652492 813.2342407850456 779.3802467652492 811.0042407850456T788.6402467652492 807.6842407850456Q793.4302467652492 806.6042407850457 798.2302467652491 807.6342407850457Q804.1702467652492 809.0042407850456 806.5202467652492 811.6842407850456Q808.8602467652493 814.3742407850457 808.3402467652493 817.8542407850457Q807.8302467652493 821.3442407850457 805.0902467652493 825.5142407850457T798.3502467652493 833.9142407850456Q794.3502467652493 838.1342407850457 789.4302467652492 842.2542407850456Q784.5202467652491 846.3642407850457 779.8402467652493 849.8542407850457Q775.1502467652492 853.3342407850457 771.1002467652493 855.9642407850456Q767.0402467652492 858.5942407850457 764.6402467652492 859.8442407850457Q764.5302467652492 861.2142407850456 764.3602467652493 864.1342407850457Q764.1802467652492 867.0442407850458 764.0102467652492 870.7042407850456Q763.8402467652493 874.3542407850457 763.6702467652492 878.3542407850457T763.3302467652493 886.0142407850457Q763.1602467652492 889.6642407850456 762.9802467652493 892.5242407850457Q762.8102467652493 895.3842407850457 762.8102467652493 896.7542407850457Q762.5802467652493 896.8642407850457 762.0102467652492 896.9842407850457Q761.4402467652492 897.0942407850457 760.6402467652492 897.1542407850457L759.1602467652492 897.2642407850457Q758.4702467652492 897.3242407850456 758.2402467652491 897.2142407850457Q757.9002467652492 897.2142407850457 757.5602467652492 896.5842407850457Q757.2102467652492 895.9542407850457 757.2102467652492 895.6142407850457M763.6102467652491 832.9942407850457Q763.2702467652491 834.5942407850457 763.4402467652492 836.9342407850456Q763.6102467652491 839.2842407850458 763.9002467652491 841.8542407850457Q764.1802467652491 844.4242407850456 764.5302467652491 846.8242407850457Q764.870246765249 849.2242407850457 764.9802467652491 850.9342407850457Q769.3302467652491 847.6242407850457 775.100246765249 844.1942407850457T786.2902467652491 836.7642407850458Q791.7202467652492 832.7642407850458 795.9502467652492 827.8542407850457T801.5502467652491 816.7742407850458Q802.0002467652491 814.3742407850457 801.1502467652492 813.5142407850458Q800.2902467652491 812.6542407850457 798.2302467652491 812.3142407850457Q793.8902467652492 811.4042407850457 788.2902467652491 812.9442407850457T777.4902467652491 817.4542407850457Q772.3002467652491 820.4242407850458 768.4102467652492 824.5442407850458Q764.5302467652491 828.6542407850457 763.6102467652491 832.9942407850457M816.6202467652491 840.8842407850457Q816.0502467652491 840.9942407850457 814.9002467652491 841.2242407850456Q813.7602467652491 841.4542407850456 812.5102467652491 841.3342407850457Q811.2502467652491 841.2242407850456 810.2802467652491 840.6542407850457T809.3102467652491 838.7142407850456Q809.3102467652491 837.9142407850456 809.650246765249 837.5642407850457Q809.990246765249 837.2242407850457 810.7902467652491 836.5342407850458Q813.3002467652491 834.4842407850457 815.0802467652491 831.2242407850457Q816.850246765249 827.9642407850457 818.3302467652491 824.2542407850457Q819.8202467652491 820.5442407850458 821.470246765249 816.8242407850457Q823.130246765249 813.1142407850457 825.3002467652491 810.1442407850457T830.670246765249 805.3442407850457T838.5602467652491 803.6342407850457Q840.500246765249 803.6342407850457 842.900246765249 804.5442407850458Q845.300246765249 805.4642407850457 847.350246765249 807.0042407850457Q849.410246765249 808.5442407850458 850.780246765249 810.7142407850456T852.150246765249 815.5142407850457Q852.7202467652489 816.4242407850456 851.0702467652491 818.1442407850457Q849.410246765249 819.8542407850457 846.5502467652491 821.8542407850457Q843.700246765249 823.8542407850457 840.100246765249 825.9742407850456Q836.500246765249 828.0842407850457 833.190246765249 829.9142407850456Q829.870246765249 831.7442407850456 827.360246765249 833.1142407850457Q824.840246765249 834.4842407850456 824.0502467652491 835.1642407850456Q823.470246765249 836.3142407850456 823.130246765249 837.7942407850456Q822.7902467652491 839.2842407850457 822.620246765249 840.5942407850457T822.390246765249 842.9942407850456T822.3302467652491 844.6542407850457Q822.3302467652491 846.8242407850457 822.160246765249 849.4542407850456Q821.9902467652489 852.0742407850457 822.390246765249 854.4242407850456Q822.790246765249 856.7642407850457 824.270246765249 858.3042407850457Q825.760246765249 859.8442407850457 829.300246765249 859.8442407850457Q833.070246765249 859.8442407850457 836.380246765249 857.9642407850457Q839.700246765249 856.0742407850457 842.550246765249 853.3342407850457Q845.410246765249 850.5942407850457 847.7502467652489 847.3942407850457Q850.100246765249 844.1942407850457 851.9802467652489 841.3942407850457Q853.870246765249 838.5942407850457 855.350246765249 836.7642407850458Q856.840246765249 834.9342407850457 857.870246765249 834.9342407850457Q859.0102467652489 834.9342407850457 860.320246765249 835.3342407850457Q861.640246765249 835.7342407850457 861.640246765249 837.2242407850457Q861.640246765249 839.2842407850458 859.9802467652489 842.1342407850457Q858.3202467652488 844.9942407850458 855.640246765249 848.1942407850457Q852.950246765249 851.3942407850457 849.4702467652489 854.5342407850458Q845.9802467652489 857.6742407850456 842.440246765249 860.1342407850457Q838.900246765249 862.5842407850457 835.4702467652489 864.1342407850457Q832.0402467652489 865.6742407850458 829.420246765249 865.6742407850458Q824.2702467652489 865.6742407850458 821.650246765249 863.1642407850458Q819.0202467652489 860.6442407850458 817.930246765249 856.8742407850457Q816.8502467652489 853.1042407850457 816.7902467652489 848.8242407850457Q816.7302467652489 844.5342407850458 816.6202467652489 840.8842407850457M837.6402467652489 810.0342407850458Q835.700246765249 810.0342407850458 833.5302467652489 811.9142407850456Q831.3602467652488 813.8042407850457 829.4702467652489 816.4842407850457Q827.5902467652488 819.1742407850456 826.3902467652489 821.9742407850457T825.190246765249 826.5942407850457Q826.9002467652489 826.5942407850457 830.160246765249 825.2842407850458Q833.410246765249 823.9742407850457 836.6102467652489 822.0242407850458Q839.8102467652488 820.0842407850457 842.2102467652489 817.9142407850456T844.6102467652489 813.8042407850457Q844.6102467652489 812.7742407850458 843.8102467652488 812.0842407850457Q843.0102467652489 811.4042407850457 841.930246765249 810.9442407850456Q840.8402467652489 810.4842407850457 839.700246765249 810.2542407850457Q838.5602467652488 810.0342407850457 837.6402467652489 810.0342407850457M867.3502467652488 839.2842407850457Q867.6902467652488 835.1642407850456 868.0302467652489 830.3142407850456Q868.3802467652489 825.4542407850456 869.1202467652488 820.6542407850457T871.0602467652488 811.5142407850456T874.2602467652489 803.8042407850456T879.2302467652488 798.4342407850456T886.4302467652489 796.5442407850456Q889.2902467652489 796.5442407850456 890.8302467652488 798.9442407850456T893.0002467652488 804.7742407850455T893.6902467652488 811.8042407850455Q893.7402467652488 815.4042407850457 893.7402467652488 817.6842407850456Q891.4602467652488 817.6842407850456 889.9702467652488 815.6842407850456Q888.4902467652488 813.6842407850456 887.6902467652488 811.0542407850455Q886.8902467652489 808.4342407850456 886.5402467652489 805.9142407850456L886.2002467652488 802.6042407850456Q886.0902467652488 802.6042407850456 885.8002467652489 802.5442407850455Q885.5202467652489 802.4942407850456 885.4002467652489 802.4942407850456Q883.4602467652488 802.4942407850456 881.8002467652489 804.6642407850456Q880.1502467652489 806.8342407850456 878.7202467652489 810.2042407850456T876.2602467652489 817.7442407850456T874.5502467652489 825.9142407850456Q873.8602467652489 829.9142407850456 873.4602467652489 833.2842407850457T873.060246765249 838.4842407850456Q872.830246765249 841.4542407850456 873.060246765249 844.9942407850456T874.430246765249 851.6242407850457Q875.580246765249 854.7042407850456 877.630246765249 856.9342407850456Q879.690246765249 859.1642407850456 883.1202467652489 859.9642407850456Q887.3402467652489 859.9642407850456 889.9702467652489 858.8142407850456Q892.6002467652489 857.6742407850456 894.2602467652489 855.7342407850456Q895.9102467652489 853.7942407850456 896.830246765249 851.3942407850457Q897.7402467652489 848.9942407850457 898.6002467652489 846.4242407850456T900.3702467652489 841.3342407850457Q901.2802467652489 838.8242407850457 903.0002467652489 836.6542407850457Q904.3702467652489 836.3142407850457 905.0002467652489 836.7142407850456T905.8502467652489 837.7942407850456Q906.080246765249 838.4842407850456 906.080246765249 839.3942407850457V840.6542407850457Q906.080246765249 845.4542407850456 904.4802467652489 849.9042407850457Q902.8802467652489 854.3642407850457 899.800246765249 857.8442407850457Q896.7102467652489 861.3342407850457 892.430246765249 863.4442407850456Q888.140246765249 865.5642407850457 882.660246765249 865.5642407850457Q878.090246765249 865.5642407850457 875.060246765249 862.6442407850457Q872.030246765249 859.7342407850456 870.380246765249 855.6242407850457Q868.7202467652489 851.5042407850457 868.0302467652489 846.9942407850457Q867.3502467652489 842.4842407850457 867.3502467652489 839.2842407850458M918.9902467652489 866.4842407850457L916.1402467652489 816.7842407850458Q914.9902467652489 817.3542407850457 914.0202467652489 817.9842407850457T912.1402467652489 819.1242407850457Q911.2202467652489 819.6342407850457 910.3102467652488 819.8642407850457T908.3702467652488 819.8642407850457Q907.6802467652487 819.8642407850457 907.2202467652488 819.0142407850457Q906.7702467652488 818.1542407850457 906.4802467652488 817.0642407850457Q906.2002467652488 815.9842407850457 906.0802467652488 814.8942407850457Q905.9702467652488 813.8142407850457 906.0802467652488 813.2442407850457L917.0502467652489 806.9542407850456L917.7402467652489 777.7042407850456Q917.9602467652489 776.2242407850456 919.560246765249 776.5042407850457Q921.160246765249 776.7942407850458 922.880246765249 777.2442407850457Q923.110246765249 777.2442407850457 923.620246765249 777.4242407850456Q924.130246765249 777.5942407850457 924.360246765249 777.7042407850456Q924.130246765249 780.7942407850456 923.850246765249 784.3942407850457Q923.5602467652491 787.9842407850456 923.340246765249 791.5842407850457Q923.110246765249 795.1842407850456 923.0502467652491 798.6142407850457T923.340246765249 804.7842407850457L940.470246765249 799.9842407850456Q940.9302467652491 799.8742407850457 941.220246765249 800.6142407850457Q941.500246765249 801.3542407850457 941.7902467652491 802.3842407850457Q942.0702467652491 803.4142407850456 942.1902467652491 804.4442407850456L942.3002467652491 805.4742407850456L922.8802467652491 813.6942407850456Q922.8802467652491 814.7242407850456 923.0502467652491 818.6142407850457Q923.220246765249 822.4942407850456 923.4502467652491 827.8042407850456Q923.6802467652491 833.1242407850457 923.9102467652491 839.2342407850456Q924.1302467652491 845.3442407850457 924.3602467652491 850.6042407850457Q924.5902467652492 855.8542407850457 924.7102467652492 859.8042407850456Q924.8202467652492 863.7442407850456 924.8202467652492 864.7742407850457Q924.5902467652492 868.1942407850456 922.8202467652492 868.1942407850456T918.9902467652491 866.4842407850457M946.3002467652491 863.2842407850458Q946.3002467652491 855.8542407850457 946.0202467652491 847.6342407850457Q945.7302467652491 839.4042407850457 945.4402467652491 831.0042407850458Q945.1602467652491 822.6042407850457 945.2702467652491 814.4942407850458Q945.3902467652491 806.3842407850457 946.3002467652491 799.3042407850457Q946.5302467652491 799.1842407850457 947.3902467652491 799.1242407850457Q948.2402467652491 799.0742407850457 948.5902467652492 799.0742407850457Q950.1902467652492 799.0742407850457 951.1602467652492 799.5842407850457Q952.1302467652492 800.1042407850457 952.1302467652492 801.8142407850457Q952.1302467652492 808.5542407850457 952.0702467652493 816.4942407850458T951.9602467652493 832.6042407850457Q951.9002467652493 840.7742407850458 951.9002467652493 848.7742407850458T952.1302467652494 863.2842407850458Q952.2402467652494 865.2242407850458 951.3902467652493 865.8542407850457Q950.5302467652493 866.4842407850458 949.2702467652493 866.4842407850458Q947.9002467652493 866.4842407850458 946.9902467652494 865.8542407850457Q946.0702467652494 865.2242407850458 946.3002467652493 863.2842407850458M943.7902467652493 781.4742407850458Q943.7902467652493 780.1042407850457 944.7002467652493 779.6442407850458Q945.6202467652492 779.1942407850458 946.7602467652492 779.1942407850458Q949.0402467652492 779.1942407850458 949.6102467652493 780.6742407850459Q950.1902467652493 782.1642407850459 950.1902467652493 784.1042407850458Q949.5002467652492 785.3642407850458 948.4702467652493 785.8742407850458Q947.4402467652493 786.3942407850458 946.3602467652493 786.1042407850458Q945.2702467652492 785.8142407850457 944.5302467652492 784.6742407850459T943.7902467652492 781.4742407850458M959.9002467652492 849.9142407850459Q959.1002467652493 844.6642407850459 959.1002467652493 839.6942407850458T959.7302467652493 829.5742407850457Q960.3502467652493 824.4342407850459 961.5502467652493 818.8942407850458T964.3502467652493 806.9542407850458Q964.3502467652493 805.6942407850458 965.0402467652493 804.6142407850458Q965.7202467652493 803.5242407850458 966.8702467652494 802.7842407850458Q968.0102467652493 802.0442407850458 969.2702467652493 801.5842407850458Q970.5202467652493 801.1242407850459 971.6702467652493 801.1242407850459Q974.1802467652493 801.1242407850459 976.2402467652494 802.7242407850458Q978.2902467652493 804.324240785046 979.9502467652494 806.6142407850459Q981.6102467652494 808.8942407850459 982.8102467652494 811.4642407850458Q984.0102467652495 814.0442407850459 984.8102467652494 815.8642407850459Q985.7202467652494 819.8642407850459 986.1202467652494 824.9542407850458Q986.5202467652493 830.0342407850458 986.1802467652493 835.2942407850458Q985.8302467652493 840.5442407850458 984.5802467652493 845.6342407850458Q983.3202467652493 850.7142407850458 981.0402467652493 854.9442407850458Q978.7502467652494 859.1742407850459 975.1502467652493 862.0242407850458Q971.5502467652493 864.8842407850458 966.6402467652493 865.5742407850457Q964.0102467652493 865.5742407850457 962.6402467652493 863.7942407850458Q961.2702467652493 862.0242407850458 960.6402467652493 859.4542407850458T959.9502467652493 854.2542407850458Q959.9002467652493 851.6342407850459 959.9002467652493 849.9142407850459M965.7202467652494 849.574240785046Q965.7202467652494 850.7142407850458 965.7802467652493 851.7442407850459T966.0102467652493 853.7442407850459T966.4702467652494 855.804240785046Q966.7502467652494 856.8842407850459 967.2102467652494 858.2542407850459H967.9002467652494Q970.6402467652495 858.2542407850459 972.5802467652494 856.4342407850459Q974.5202467652495 854.6042407850459 975.8902467652493 851.6842407850459Q977.2602467652493 848.7742407850459 978.1802467652493 845.1742407850459Q979.0902467652493 841.574240785046 979.6102467652493 838.0942407850459Q980.1202467652492 834.6042407850459 980.2902467652492 831.574240785046Q980.4602467652492 828.554240785046 980.4602467652492 826.7242407850459V824.4342407850459Q980.4602467652492 822.9542407850458 980.3502467652492 821.064240785046Q980.2402467652491 819.1842407850459 979.9502467652492 817.1842407850459T979.0902467652492 813.5242407850459T977.6102467652491 810.8442407850459Q976.6902467652492 809.814240785046 975.2102467652492 809.814240785046Q972.6902467652492 809.0142407850459 970.9202467652492 810.1542407850459T968.0702467652492 813.9842407850458Q966.9802467652491 816.6642407850459 966.4102467652492 820.5542407850459Q965.8402467652492 824.4342407850459 965.7202467652492 829.1242407850459Q965.6102467652491 833.8042407850459 965.6702467652492 839.0642407850459Q965.7202467652492 844.3142407850459 965.7202467652492 849.5742407850458M996.0002467652491 864.0842407850458Q994.7502467652491 848.6642407850459 993.7802467652491 833.1742407850459Q992.8002467652491 817.6942407850458 991.6602467652491 801.0142407850458Q991.6602467652491 798.2742407850458 994.6302467652491 798.2742407850458H995.5502467652491Q995.8902467652491 798.2742407850458 996.350246765249 799.1842407850459Q996.8002467652491 800.1042407850458 997.3202467652491 802.5542407850457Q997.8302467652491 805.0142407850458 998.460246765249 809.9842407850458T1000.000246765249 822.9542407850458Q1000.920246765249 830.9542407850458 1002.060246765249 842.9442407850458Q1004.4602467652489 835.1742407850459 1005.830246765249 827.8642407850459T1009.3702467652489 814.5542407850459T1015.4802467652489 803.9842407850458Q1019.430246765249 799.4142407850459 1026.8502467652488 797.2442407850458Q1030.970246765249 797.9342407850459 1033.480246765249 802.2142407850458T1037.480246765249 812.7842407850459Q1038.960246765249 819.0642407850459 1039.5402467652489 826.4342407850459Q1040.110246765249 833.8042407850459 1040.2202467652487 840.5442407850459Q1040.3402467652488 847.2842407850459 1040.3402467652488 852.6042407850459Q1040.3402467652488 857.9142407850459 1040.5602467652488 860.2042407850458Q1040.2202467652487 861.1142407850459 1039.5402467652489 861.804240785046Q1038.8502467652488 862.4842407850459 1037.990246765249 862.774240785046Q1037.1402467652488 863.054240785046 1036.340246765249 862.8842407850459T1034.8502467652488 861.684240785046Q1034.8502467652488 860.424240785046 1034.6202467652488 856.544240785046Q1034.3902467652488 852.654240785046 1034.0502467652489 847.4642407850461Q1033.710246765249 842.264240785046 1033.3102467652488 836.374240785046Q1032.9102467652488 830.494240785046 1032.6202467652488 825.294240785046Q1032.3402467652488 820.094240785046 1032.1102467652488 816.2142407850461Q1031.8802467652488 812.3242407850461 1031.7702467652489 811.0642407850461Q1029.3702467652488 806.844240785046 1027.0202467652489 806.274240785046Q1024.6802467652487 805.6942407850461 1022.3402467652488 807.754240785046T1017.8302467652488 814.0442407850461Q1015.6602467652489 818.2642407850461 1013.7102467652488 823.5842407850462Q1011.7702467652488 828.8942407850461 1010.0602467652488 834.724240785046Q1008.3402467652488 840.5442407850461 1007.0902467652488 845.974240785046Q1005.8302467652488 851.4042407850461 1004.9702467652488 855.8042407850461Q1004.1202467652488 860.2042407850461 1003.8902467652488 862.5942407850462Q1003.5402467652488 863.3942407850461 1002.4602467652488 864.1442407850461Q1001.3702467652488 864.8842407850461 1000.1702467652489 865.224240785046Q998.9702467652488 865.5742407850462 997.7702467652489 865.3942407850461Q996.5702467652488 865.224240785046 996.0002467652489 864.0842407850462 "></path><path fill="#0080ff" d="M580.2222467652496 813.9502407850446V813.5662407850446C580.0302467652496 809.3422407850446 579.4542467652495 805.3102407850446 578.8782467652496 801.0862407850445C575.0382467652496 772.8622407850446 565.2462467652496 748.6702407850446 552.9582467652496 733.3102407850446C551.0382467652496 730.2382407850446 548.9262467652496 728.1262407850445 547.0062467652496 726.5902407850446C547.5822467652496 726.0142407850445 547.9662467652496 725.4382407850446 548.3502467652496 724.6702407850446C553.5342467652496 716.2222407850445 549.1182467652496 703.3582407850445 538.5582467652496 695.6782407850445C529.5342467652496 689.1502407850445 518.7822467652496 688.5742407850446 512.6382467652496 693.9502407850446L512.4462467652496 694.1422407850446C511.8702467652496 694.5262407850446 509.9502467652496 695.2942407850445 505.9182467652496 693.5662407850446L491.7102467652496 683.5822407850445L510.3342467652496 714.6862407850444C511.1022467652496 716.0302407850445 511.8702467652496 717.5662407850446 512.8302467652496 718.9102407850445C514.7502467652496 721.4062407850445 517.0542467652496 723.9022407850446 519.7422467652497 725.8222407850444C520.1262467652496 726.0142407850444 520.3182467652496 726.2062407850444 520.7022467652496 726.3982407850444C519.1662467652496 727.5502407850445 517.6302467652496 729.2782407850445 516.0942467652496 731.1982407850445C503.0382467652496 746.3662407850445 492.6702467652496 771.3262407850445 488.6382467652496 800.7022407850445A188 188 0 0 0 487.1022467652496 818.3662407850445C487.1022467652496 819.3262407850445 487.2942467652496 820.0942407850446 487.6782467652496 820.0942407850446S488.4462467652496 819.5182407850446 488.8302467652496 818.5582407850445C489.4062467652496 816.4462407850444 489.9822467652496 814.3342407850446 490.7502467652496 812.4142407850445C490.7502467652496 812.0302407850445 490.9422467652496 811.8382407850445 490.9422467652496 811.8382407850445V812.0302407850445C493.8222467652496 803.1982407850445 497.0862467652496 794.7502407850445 500.92624676524963 787.2622407850445C499.77424676524964 799.9342407850445 499.0062467652496 815.1022407850444 499.0062467652496 833.1502407850444C499.0062467652496 841.5982407850445 504.38224676524965 846.0142407850444 510.52624676524965 848.1262407850445C506.8782467652496 851.3902407850444 506.30224676524966 855.8062407850445 506.30224676524966 855.8062407850445S507.07024676524964 853.6942407850445 509.5662467652497 854.0782407850445S511.2942467652497 858.6862407850444 511.2942467652497 858.6862407850444S513.4062467652496 855.6142407850444 515.1342467652497 856.3822407850445C516.8622467652497 856.9582407850445 516.0942467652496 860.6062407850445 516.0942467652496 860.6062407850445C522.4302467652496 855.9982407850445 523.5822467652497 850.8142407850445 523.5822467652497 850.8142407850445V850.2382407850445H544.1262467652497V850.8142407850445S545.2782467652497 855.8062407850446 551.6142467652497 860.6062407850445C551.6142467652497 860.6062407850445 550.6542467652497 857.1502407850444 552.5742467652497 856.3822407850445C554.3022467652497 855.8062407850445 556.4142467652497 858.6862407850444 556.4142467652497 858.6862407850444S555.8382467652497 854.4622407850445 558.1422467652498 854.0782407850445A2.89 2.89 0 0 1 561.4062467652498 855.8062407850445S560.8302467652497 851.9662407850444 557.7582467652497 848.7022407850445C563.9022467652497 846.9742407850445 569.0862467652497 842.7502407850445 569.0862467652497 833.1502407850444C569.0862467652497 815.4862407850444 568.5102467652497 800.7022407850445 567.1662467652498 788.2222407850445A186 186 0 0 1 578.6862467652497 818.9422407850444C579.0702467652497 819.7102407850443 579.2622467652498 820.0942407850443 579.6462467652498 820.0942407850443S580.2222467652498 819.1342407850444 580.2222467652498 817.9822407850444C580.4142467652498 817.2142407850445 580.2222467652498 815.4862407850444 580.2222467652498 813.9502407850443M520.3182467652498 701.2462407850444C518.9742467652497 701.2462407850444 517.8222467652497 700.0942407850443 517.8222467652497 698.5582407850444S518.9742467652497 695.8702407850444 520.3182467652498 695.8702407850444S522.8142467652498 697.0222407850445 522.8142467652498 698.5582407850444C523.0062467652498 699.9022407850443 521.8542467652497 701.2462407850444 520.3182467652498 701.2462407850444M527.2302467652497 836.6062407850444C521.6622467652497 836.6062407850444 511.29424676524974 835.0702407850445 511.29424676524974 825.6622407850443C511.48624676524975 753.8542407850443 528.3822467652498 753.8542407850443 533.9502467652497 753.8542407850443S556.6062467652498 754.2382407850444 556.6062467652498 825.6622407850443C556.6062467652498 836.6062407850444 546.0462467652497 836.6062407850444 540.4782467652498 836.6062407850444Z "></path></g><rect width="561" height="248" x="469.5" y="626" id="space-saver" fill="transparent" stroke="transparent"></rect></g></svg>